<?xml version="1.0" standalone="no"?>
<!DOCTYPE svg PUBLIC "-//W3C//DTD SVG 20010904//EN"
 "http://www.w3.org/TR/2001/REC-SVG-20010904/DTD/svg10.dtd">
<svg version="1.0" xmlns="http://www.w3.org/2000/svg"
 width="840.000000pt" height="859.000000pt" viewBox="0 0 840.000000 859.000000"
 preserveAspectRatio="xMidYMid meet">

<g transform="translate(0.000000,859.000000) scale(0.100000,-0.100000)"
fill="#000000" stroke="none">
<path d="M3167 7943 c-4 -3 -7 -123 -7 -265 l0 -258 -260 0 -260 0 0 -520 0
-520 -260 0 -260 0 0 -780 0 -780 520 0 520 0 0 260 0 260 520 0 520 0 0 260
0 260 -260 0 -260 0 0 260 0 260 260 0 260 0 2 263 3 262 520 0 520 0 3 -522
2 -523 260 0 260 0 0 -260 0 -260 -260 0 -260 0 0 -260 0 -260 783 -2 782 -3
3 -257 2 -258 255 0 255 0 2 258 3 257 263 3 262 2 0 260 0 260 260 0 260 0 0
780 0 780 -520 0 -520 0 -2 263 -3 262 -782 -4 -783 -4 0 266 0 267 -1298 0
c-714 0 -1302 -3 -1305 -7z m3651 -1300 l2 -263 260 0 260 0 0 -260 0 -260
260 0 260 0 0 -260 0 -260 -785 0 -785 0 0 260 0 260 -260 0 -260 0 0 525 0
525 523 -2 522 -3 3 -262z m-3658 -783 l0 -520 -260 0 -260 0 0 520 0 520 260
0 260 0 0 -520z"/>
<path d="M1078 4033 l-3 -258 -262 -3 -263 -2 0 -260 0 -260 260 0 260 0 0
-260 0 -260 785 0 785 0 0 -525 0 -525 -260 0 -260 0 -2 263 -3 262 -257 3
-258 2 -2 -262 -3 -263 -257 -3 -258 -2 -2 -258 -3 -257 -262 -3 -263 -2 0
-520 0 -520 260 0 260 0 0 260 0 260 525 0 525 0 0 -260 0 -260 1040 0 1040 0
0 260 0 260 785 0 785 0 0 265 0 265 1305 0 1305 0 0 1300 0 1300 -260 0 -260
0 0 -520 0 -520 -520 0 -520 0 0 -260 0 -260 -265 0 -265 0 0 260 0 260 260 0
260 0 0 780 0 780 -2865 0 -2865 0 -2 -257z m4692 -1563 l0 -260 -260 0 -260
0 0 260 0 260 260 0 260 0 0 -260z"/>
</g>
</svg>
